<svg viewBox="0 0 46 46" fill="none" stroke="#ffffff" stroke-width="2.2" width="25" height="24" data-test-id="wirey-facebook-icon" class="d:block social-icon" role="img"><path d="M40.486 44.346H5.547a3.87 3.87 0 0 1-3.859-3.86V5.546a3.87 3.87 0 0 1 3.859-3.858h34.94a3.87 3.87 0 0 1 3.86 3.859v34.94a3.871 3.871 0 0 1-3.86 3.859z"></path><path d="M23.982 44.648v-17h-5.435v-6.525h5.52v-5.408s-.077-7.97 7.479-7.97c0 0 2.97-.133 5.888.124v5.957l-3.837.086s-2.918-.258-2.918 3.09v4.035h6.697l-.912 6.526h-5.7v16.742"></path></svg>