<svg viewBox="0 0 52 52" fill="currentColor" width="25" height="24" data-test-id="email-signup-messages-icon" class="social-icon" role="img" xmlns="http://www.w3.org/2000/svg" xmlns:dc="http://purl.org/dc/elements/1.1/" xmlns:cc="http://creativecommons.org/ns#" xmlns:rdf="http://www.w3.org/1999/02/22-rdf-syntax-ns#" xmlns:svg="http://www.w3.org/2000/svg"><path d="M45.909 10.25L26.125 30.034 6.341 10.25h39.568zM26.921 32.42c.081-.081.148-.177.204-.294.118-.057.215-.125.296-.206L48.39 10.95a.891.891 0 0 0 .128-.162A1.7 1.7 0 0 1 49 11.965v27.32C49 40.23 48.23 41 47.284 41H4.966c-.947 0-1.716-.77-1.716-1.715v-27.32c0-.436.174-.857.481-1.177a.93.93 0 0 0 .127.162l21.471 21.47a1.153 1.153 0 0 0 1.592 0zM47.284 8H4.966A3.97 3.97 0 0 0 1 11.965v27.32a3.97 3.97 0 0 0 3.966 3.965h42.318a3.97 3.97 0 0 0 3.966-3.965v-27.32A3.97 3.97 0 0 0 47.284 8z"/></svg>