<svg viewBox="0 0 52 52" fill="currentColor" fill-rule="evenodd" width="25" height="24" data-test-id="text_club-signup-icon" class="social-icon" role="img" xmlns="http://www.w3.org/2000/svg" xmlns:dc="http://purl.org/dc/elements/1.1/" xmlns:cc="http://creativecommons.org/ns#" xmlns:rdf="http://www.w3.org/1999/02/22-rdf-syntax-ns#" xmlns:svg="http://www.w3.org/2000/svg"><path d="M40 4.966V9H12.25V4.966c0-.946.77-1.716 1.716-1.716h24.318c.946 0 1.716.77 1.716 1.716zM12.25 39H40V11.25H12.25V39zM40 41.25v6.034c0 .947-.77 1.716-1.716 1.716H13.966a1.718 1.718 0 0 1-1.716-1.716V41.25H40zM38.284 1H13.966A3.97 3.97 0 0 0 10 4.966v42.318a3.97 3.97 0 0 0 3.966 3.966h24.318a3.97 3.97 0 0 0 3.966-3.966V4.966A3.97 3.97 0 0 0 38.284 1zM26.125 47.25a2.127 2.127 0 0 0 2.125-2.125A2.127 2.127 0 0 0 26.125 43 2.127 2.127 0 0 0 24 45.125c0 1.172.953 2.125 2.125 2.125"/></svg>