<svg viewBox="0 -1 52 52" width="20" height="20" style="overflow:visible" xmlns="http://www.w3.org/2000/svg"><path d="M46.684 45.039a4.918 4.918 0 01-3.52 1.464 4.921 4.921 0 01-3.52-1.464l-8.337-8.421a20.609 20.609 0 006.919-7.234l8.458 8.544c1.941 1.96 1.941 5.15 0 7.11M29.317 35.48l-.138.068c-.236.128-.482.237-.725.354a19.2 19.2 0 01-1.459.629c-.171.065-.341.13-.515.19-.249.088-.498.172-.75.248a17.865 17.865 0 01-1.741.426c-.489.094-.983.175-1.484.229-.086.01-.172.015-.258.023-.564.053-1.133.087-1.71.087h-.001c-10.157 0-18.419-8.345-18.419-18.604 0-.648.034-1.292.1-1.93.007-.075.025-.147.033-.222.066-.566.149-1.13.266-1.687.01-.046.024-.091.035-.137.127-.584.278-1.163.462-1.735.01-.031.024-.061.033-.092A18.645 18.645 0 0111.755 2.78l.137-.068c.236-.128.483-.236.726-.354a19.2 19.2 0 011.973-.82c.249-.086.499-.171.75-.247a18.495 18.495 0 013.226-.655c.086-.01.172-.014.258-.023a18.248 18.248 0 011.711-.087c10.156 0 18.419 8.346 18.419 18.604 0 .648-.034 1.292-.1 1.93-.008.075-.025.147-.033.222-.066.566-.149 1.13-.266 1.687-.01.047-.025.09-.035.137a18.484 18.484 0 01-.462 1.735l-.034.092a18.645 18.645 0 01-8.708 10.547m18.775 1.026L39.177 27.5l.001-.002c.116-.265.225-.533.331-.804.146-.371.283-.746.408-1.127.078-.238.148-.48.217-.723.133-.46.255-.923.356-1.395.032-.154.057-.31.087-.464.105-.555.194-1.116.254-1.686.007-.07.01-.138.017-.207a20.54 20.54 0 00-.819-8.094 20.528 20.528 0 00-.687-1.894c-3.098-7.4-10.351-12.59-18.806-12.59-.624 0-1.239.037-1.848.094-.128.01-.256.02-.383.034a19.913 19.913 0 00-3.258.647c-.424.12-.84.253-1.252.399l-.302.112c-.656.244-1.293.519-1.914.826h-.002A20.575 20.575 0 001.895 10.76l-.001.002c-.117.265-.226.534-.331.804-.146.37-.283.745-.408 1.126-.078.24-.149.48-.218.724a20.78 20.78 0 00-.355 1.395c-.032.154-.058.31-.086.464a19.509 19.509 0 00-.255 1.686c-.008.069-.011.139-.017.207-.061.647-.099 1.3-.099 1.963 0 11.386 9.138 20.616 20.411 20.616h.001c.624 0 1.238-.038 1.847-.095.128-.011.256-.02.383-.034a20.085 20.085 0 003.257-.647 19.603 19.603 0 001.556-.512 20.163 20.163 0 001.912-.824l.004-.002 8.741 8.829a6.909 6.909 0 004.927 2.054 6.91 6.91 0 004.928-2.054c2.711-2.737 2.711-7.217 0-9.955" fill="currentColor"/><path d="M20.535.65c-.518 0-1.073.029-1.698.088l-.114.01a3.26 3.26 0 00-.142.012c-.451.049-.92.12-1.476.228-.162.032-.325.063-.486.1-.407.09-.825.199-1.242.323a17.07 17.07 0 00-.745.246c-.15.052-.296.108-.445.164l-.066.025c-.5.192-.988.403-1.449.625l-.235.11c-.163.078-.327.155-.486.24l-.14.07c-3.524 1.939-6.367 5.06-8.002 8.786-.237.54-.454 1.108-.643 1.689a1.109 1.109 0 01-.02.052l-.014.039a17.864 17.864 0 00-.458 1.723l-.018.068c-.006.023-.014.046-.018.069a18.44 18.44 0 00-.264 1.675c-.004.037-.01.072-.017.108-.006.037-.012.073-.016.11a18.5 18.5 0 00-.1 1.92c0 10.189 8.207 18.479 18.294 18.479.52 0 1.075-.028 1.7-.086l.114-.01.142-.013a17.793 17.793 0 001.962-.328c.407-.09.825-.2 1.24-.323a18.007 18.007 0 001.177-.405l.08-.03c.5-.192.989-.402 1.448-.624l.226-.107c.167-.078.334-.157.495-.244l.14-.07c3.527-1.94 6.37-5.061 8.005-8.786.24-.551.456-1.12.642-1.69l.035-.093c.174-.543.323-1.107.457-1.72a1.03 1.03 0 01.02-.075l.016-.062c.105-.498.19-1.046.264-1.675a1.35 1.35 0 01.017-.111c.005-.036.011-.072.015-.11.067-.631.1-1.276.1-1.917C38.83 8.94 30.623.65 20.536.65zm.002 37.209c-10.227 0-18.546-8.401-18.546-18.73 0-.642.034-1.296.103-1.942.004-.043.01-.086.018-.13.006-.031.01-.062.014-.094.074-.636.162-1.191.268-1.697.006-.03.014-.056.02-.084l.015-.056c.137-.63.29-1.2.465-1.745.006-.017.012-.035.02-.052l.014-.04c.194-.59.413-1.165.652-1.712C5.237 7.8 8.119 4.637 11.695 2.67l.142-.071c.16-.086.328-.165.495-.244l.232-.11c.467-.226.961-.44 1.468-.633l.067-.025a17.525 17.525 0 011.207-.416A18.423 18.423 0 0118.553.51c.05-.005.1-.01.148-.013l.111-.01A18.559 18.559 0 0120.535.4C30.762.4 39.08 8.803 39.08 19.13c0 .65-.035 1.304-.102 1.943-.004.043-.01.084-.017.125l-.015.099a18.555 18.555 0 01-.267 1.698l-.02.077a1.33 1.33 0 00-.017.06 18.297 18.297 0 01-.464 1.747l-.035.095a19.106 19.106 0 01-.651 1.709c-1.656 3.777-4.538 6.94-8.114 8.907l-.143.07a9.87 9.87 0 01-.505.249l-.221.106c-.468.225-.962.438-1.47.633l-.08.03a20.188 20.188 0 01-1.194.411 18.357 18.357 0 01-1.753.429c-.55.106-1.038.182-1.494.23-.049.006-.099.01-.148.014l-.11.01c-.635.059-1.199.087-1.724.087zm10.969-1.218l8.227 8.31a4.794 4.794 0 003.431 1.427 4.79 4.79 0 003.431-1.427 4.944 4.944 0 000-6.935l-8.343-8.427a20.809 20.809 0 01-6.747 7.052zm11.658 9.987a5.043 5.043 0 01-3.608-1.501l-8.447-8.532.131-.083a20.53 20.53 0 006.878-7.19l.08-.143 8.575 8.66c1.99 2.01 1.99 5.279 0 7.288a5.038 5.038 0 01-3.609 1.5zm-13.648-9.146l.069.063 8.74 8.828a6.758 6.758 0 004.84 2.017 6.758 6.758 0 004.839-2.017c2.67-2.696 2.67-7.083 0-9.78l-8.951-9.041v-.096l.018-.022c.111-.26.218-.52.322-.785.157-.4.29-.766.405-1.12.078-.236.146-.477.216-.718.148-.513.264-.966.353-1.387.022-.097.039-.195.056-.293l.03-.168c.115-.605.198-1.153.255-1.676l.016-.206a20.426 20.426 0 00-.815-8.045 20.784 20.784 0 00-.682-1.882C36.044 3.552 28.707-1.36 20.536-1.36c-.559 0-1.159.03-1.837.094l-.118.009c-.087.008-.175.015-.262.025a18.974 18.974 0 00-2.235.383c-.307.07-.636.155-1.002.26a19.666 19.666 0 00-1.493.488l-.053.02c-.624.232-1.24.496-1.832.786v.047h-.099A20.462 20.462 0 002.01 10.81c-.117.265-.224.532-.33.8-.157.403-.29.769-.405 1.12-.079.238-.147.478-.218.719-.15.526-.262.967-.352 1.388l-.065.342-.02.118a19.74 19.74 0 00-.255 1.676c-.005.042-.007.084-.01.125l-.006.08a20.495 20.495 0 00-.097 1.952c0 11.299 9.098 20.49 20.285 20.49.558 0 1.159-.03 1.836-.093l.119-.01c.087-.007.175-.014.262-.024a19.596 19.596 0 003.236-.643 19.69 19.69 0 001.547-.508 20.38 20.38 0 001.9-.82l.08-.04zM43.165 48.64a7.008 7.008 0 01-5.017-2.091l-8.676-8.765A20.83 20.83 0 0124.35 39.5a19.33 19.33 0 01-1.837.266l-.117.01c-.686.064-1.293.095-1.858.095C9.213 39.87 0 30.567 0 19.13c0-.627.033-1.273.1-1.974l.004-.075.013-.135c.055-.531.14-1.086.256-1.695l.02-.116c.021-.117.042-.234.068-.35.09-.427.203-.873.355-1.405.07-.243.142-.486.22-.727a22.439 22.439 0 01.744-1.943A20.71 20.71 0 0111.453.55V.549l.07-.034a20.616 20.616 0 011.925-.831l.053-.02.253-.092c.434-.154.847-.286 1.26-.401a19.473 19.473 0 013.277-.652c.09-.01.18-.017.27-.025l.116-.01a20.252 20.252 0 011.858-.094c8.273 0 15.7 4.972 18.923 12.667a20.885 20.885 0 011.614 8.073c0 .627-.033 1.273-.1 1.975l-.017.208a20.71 20.71 0 01-.255 1.696l-.03.166c-.02.1-.037.2-.059.3-.09.428-.207.887-.356 1.405-.07.244-.142.487-.219.727a23.39 23.39 0 01-.71 1.866l8.855 8.945c2.766 2.794 2.766 7.338 0 10.13a7.008 7.008 0 01-5.017 2.092z" fill="currentColor"/><path d="M20.535.261c-.518 0-1.073.028-1.699.087l-.114.01a3.26 3.26 0 00-.142.012c-.451.049-.92.121-1.475.228-.162.032-.325.063-.486.1-.407.09-.825.199-1.242.323a17.07 17.07 0 00-.745.246c-.15.052-.297.108-.446.164l-.066.025c-.5.192-.987.403-1.448.625l-.235.111c-.164.077-.328.154-.486.24l-.141.07C8.286 4.44 5.443 7.561 3.808 11.287c-.236.54-.453 1.108-.643 1.689a1.109 1.109 0 01-.02.052l-.013.039a17.864 17.864 0 00-.459 1.723l-.018.068c-.006.023-.013.046-.017.069a18.44 18.44 0 00-.264 1.675c-.004.037-.01.072-.017.108-.006.037-.012.073-.016.111-.067.639-.1 1.284-.1 1.919 0 10.189 8.207 18.479 18.294 18.479.519 0 1.074-.028 1.7-.086l.114-.01.142-.013a17.793 17.793 0 001.962-.328c.407-.09.824-.199 1.24-.323a18.007 18.007 0 001.177-.405l.08-.03c.5-.192.988-.402 1.448-.624l.225-.107c.167-.078.334-.157.496-.244l.14-.069c3.527-1.941 6.37-5.062 8.004-8.787.24-.551.457-1.119.642-1.689l.035-.094c.175-.543.324-1.107.458-1.72a1.03 1.03 0 01.019-.075c.006-.021.012-.041.016-.062.105-.498.191-1.046.264-1.675.004-.037.011-.075.017-.111.006-.036.012-.072.016-.11.066-.631.099-1.276.099-1.917C38.829 8.551 30.622.261 20.535.261zm.001 37.208c-10.227 0-18.545-8.401-18.545-18.729 0-.643.034-1.297.102-1.943.004-.043.01-.086.018-.13.006-.031.011-.062.015-.094.073-.636.161-1.191.267-1.697.006-.029.014-.056.021-.084l.015-.056c.136-.629.289-1.2.464-1.745l.02-.052.014-.039c.194-.591.414-1.166.653-1.713 1.656-3.776 4.538-6.939 8.114-8.906l.142-.071c.159-.086.327-.165.495-.244l.231-.11c.468-.226.962-.439 1.469-.633l.067-.025a17.525 17.525 0 011.207-.416 18.423 18.423 0 013.248-.661l.148-.013.111-.009a18.559 18.559 0 011.723-.088c10.226 0 18.544 8.402 18.544 18.729 0 .65-.034 1.304-.101 1.943-.004.043-.01.084-.018.125l-.015.099a18.555 18.555 0 01-.267 1.698c-.005.026-.013.052-.02.077a1.33 1.33 0 00-.016.06 18.297 18.297 0 01-.464 1.747l-.036.095a19.106 19.106 0 01-.651 1.709c-1.656 3.777-4.538 6.94-8.114 8.907l-.143.071a9.87 9.87 0 01-.505.248l-.221.106c-.467.225-.961.438-1.469.633l-.08.03a20.188 20.188 0 01-1.194.411 18.357 18.357 0 01-1.753.429c-.551.106-1.039.182-1.494.231l-.148.013-.111.01c-.634.059-1.198.087-1.723.087zm10.969-1.218l8.227 8.31a4.794 4.794 0 003.432 1.427c1.302 0 2.52-.507 3.431-1.427a4.944 4.944 0 000-6.935l-8.343-8.427a20.809 20.809 0 01-6.747 7.052zm11.659 9.987a5.043 5.043 0 01-3.609-1.501l-8.447-8.532.132-.083a20.53 20.53 0 006.877-7.19l.081-.143 8.574 8.661c1.99 2.009 1.99 5.278 0 7.287a5.038 5.038 0 01-3.608 1.501zm-13.648-9.146l.068.063 8.741 8.828A6.758 6.758 0 0043.164 48a6.758 6.758 0 004.839-2.017c2.67-2.696 2.67-7.083 0-9.779l-8.951-9.042v-.096l.018-.022c.112-.259.219-.52.322-.785.158-.399.29-.766.406-1.12.077-.236.146-.477.216-.718.148-.513.263-.966.353-1.387.021-.097.038-.195.056-.293l.03-.168c.115-.605.198-1.153.254-1.676l.016-.206c.066-.693.098-1.331.098-1.951 0-2.078-.307-4.128-.912-6.094a20.784 20.784 0 00-.683-1.882C36.043 3.162 28.706-1.75 20.535-1.75c-.558 0-1.158.031-1.836.094l-.118.009c-.088.008-.176.015-.263.025a18.974 18.974 0 00-2.235.383c-.307.07-.635.155-1.002.26a19.666 19.666 0 00-1.492.488l-.053.02c-.625.232-1.241.496-1.833.786v.047l-.098.001A20.462 20.462 0 002.009 10.42c-.118.265-.225.532-.33.801-.158.402-.29.768-.406 1.12-.078.237-.147.477-.217.718-.15.526-.262.967-.352 1.388-.023.113-.044.228-.065.342l-.021.118a19.74 19.74 0 00-.254 1.676c-.005.042-.007.084-.01.125l-.006.08A20.495 20.495 0 00.25 18.74c0 11.299 9.099 20.491 20.285 20.491.559 0 1.159-.031 1.837-.094l.118-.01c.088-.007.176-.014.263-.024a19.596 19.596 0 003.236-.643 19.69 19.69 0 001.547-.508 20.38 20.38 0 001.899-.82l.081-.04zM43.164 48.25a7.008 7.008 0 01-5.017-2.091l-8.677-8.765a20.83 20.83 0 01-1.846.792l-.307.113c-.435.154-.847.285-1.26.401-.364.104-.696.191-1.013.264a20.925 20.925 0 01-2.264.387c-.09.01-.18.018-.269.025l-.117.01c-.685.064-1.293.095-1.858.095C9.212 39.481 0 30.177 0 18.74c0-.627.032-1.273.099-1.974l.005-.075.012-.135c.056-.531.14-1.086.256-1.695l.021-.116c.021-.117.042-.234.067-.35.091-.427.204-.873.356-1.405.07-.243.141-.486.219-.727.117-.356.252-.727.411-1.133.106-.272.215-.543.333-.809A20.71 20.71 0 0111.453.16V.159l.069-.034a20.616 20.616 0 011.926-.831l.053-.019.252-.093c.435-.154.847-.286 1.26-.401a19.473 19.473 0 013.278-.652c.09-.01.18-.017.269-.025l.117-.01A20.252 20.252 0 0120.535-2c8.272 0 15.699 4.972 18.922 12.667a20.885 20.885 0 011.614 8.073c0 .627-.032 1.273-.099 1.975l-.017.208c-.056.53-.14 1.085-.256 1.696l-.03.166c-.019.101-.036.201-.058.301-.091.427-.208.886-.357 1.404-.07.244-.141.487-.218.727-.118.358-.252.73-.411 1.134-.097.246-.195.491-.3.732l8.856 8.945c2.765 2.794 2.765 7.338 0 10.131a7.008 7.008 0 01-5.017 2.091z" fill="currentColor"/></svg>